<?xml version="1.0" standalone="no"?>
<!DOCTYPE svg PUBLIC "-//W3C//DTD SVG 20010904//EN"
 "http://www.w3.org/TR/2001/REC-SVG-20010904/DTD/svg10.dtd">
<svg version="1.0" xmlns="http://www.w3.org/2000/svg"
 width="404.000000pt" height="404.000000pt" viewBox="0 0 404.000000 404.000000"
 preserveAspectRatio="xMidYMid meet">
<metadata>
Created by potrace 1.14, written by Peter Selinger 2001-2017
</metadata>
<g transform="translate(0.000000,404.000000) scale(0.100000,-0.100000)"
fill="#000000" stroke="none">
<path d="M1739 3895 c-2 -2 -48 -5 -102 -8 -53 -2 -100 -6 -102 -9 -3 -3 -19
-4 -35 -2 -22 3 -33 -2 -42 -19 -7 -12 -13 -24 -13 -27 -1 -3 -23 -72 -49
-155 -27 -82 -49 -156 -49 -162 0 -7 -5 -13 -10 -13 -6 0 -8 -3 -5 -6 7 -6
-112 -363 -143 -431 -22 -49 -40 -61 -98 -64 -23 -2 -45 -7 -47 -11 -3 -5 -9
-6 -13 -4 -4 3 -39 -2 -77 -10 -38 -8 -80 -17 -94 -19 -14 -2 -35 -7 -47 -11
-24 -7 -28 -1 -38 51 -10 51 -13 68 -20 125 -4 30 -9 59 -12 63 -3 4 -7 24 -9
45 -4 36 -8 60 -20 112 -7 33 -11 60 -13 87 -1 23 -28 56 -39 49 -4 -2 -70 -7
-147 -11 -77 -3 -149 -8 -160 -10 -11 -2 -22 -4 -25 -4 -8 -1 -50 -33 -69 -53
-32 -33 -46 -53 -68 -95 -22 -44 -24 -118 -9 -258 19 -166 23 -205 30 -290 5
-54 11 -110 20 -200 4 -32 13 -95 21 -135 3 -14 7 -52 10 -85 3 -33 8 -68 11
-77 3 -10 7 -40 9 -68 3 -46 1 -52 -25 -71 -15 -12 -30 -30 -33 -39 -3 -11
-28 -27 -67 -41 -72 -26 -78 -36 -110 -177 -11 -48 -25 -109 -31 -137 -16 -67
-16 -442 0 -458 6 -6 11 -21 11 -33 0 -46 27 -89 65 -103 29 -10 34 -15 24
-27 -6 -8 -17 -14 -24 -14 -16 0 -39 -65 -61 -170 -27 -128 -31 -189 -29 -395
3 -292 12 -314 163 -359 84 -24 157 -35 293 -41 141 -7 159 -1 159 56 0 16 5
29 10 29 17 0 90 -50 90 -61 0 -16 217 -7 248 10 15 8 22 21 22 41 0 36 5 37
52 5 20 -14 44 -25 52 -25 9 0 16 -3 16 -8 0 -4 14 -13 30 -21 60 -26 270 33
270 76 0 11 -5 24 -11 30 -7 7 -6 12 3 16 8 2 37 -17 66 -44 89 -83 94 -84
287 -84 156 0 237 9 346 36 27 7 40 17 49 39 7 17 17 30 22 30 5 0 29 -13 53
-30 24 -16 49 -30 56 -30 7 0 9 -3 6 -6 -4 -4 10 -16 31 -27 30 -17 60 -21
163 -25 81 -3 140 0 162 7 31 11 36 17 42 56 l6 45 27 -17 c15 -9 41 -32 58
-50 30 -31 36 -33 95 -33 87 1 258 15 265 23 3 3 11 29 17 57 l12 52 70 -66
c63 -61 75 -68 120 -73 28 -3 76 0 107 6 l57 12 3 79 3 79 72 -70 c40 -38 77
-77 82 -86 8 -15 19 -16 123 -5 63 7 140 17 171 23 l57 12 1 241 c0 132 0 300
0 371 0 72 -1 392 -1 712 0 460 -2 583 -12 590 -7 4 -53 10 -103 13 l-90 5 2
70 c1 66 4 90 19 190 4 22 7 49 8 60 2 11 5 38 9 60 11 71 23 175 32 295 2 30
5 55 5 55 2 0 8 65 15 140 2 33 7 76 10 95 16 100 0 250 -27 250 -4 0 -8 5 -8
10 0 14 -49 67 -84 93 -33 23 -39 24 -216 33 -74 3 -137 7 -140 9 -8 5 -35
-12 -36 -22 0 -4 -4 -19 -7 -33 -4 -14 -9 -43 -12 -65 -3 -22 -7 -47 -10 -55
-2 -8 -7 -33 -10 -55 -7 -48 -8 -53 -30 -180 -10 -55 -18 -106 -18 -113 0 -11
-30 -11 -72 2 -5 1 -28 6 -50 11 -22 4 -49 10 -60 12 -34 7 -58 11 -108 18
-101 13 -104 16 -177 235 -51 154 -141 431 -144 445 -10 48 -60 186 -69 192
-7 4 -25 8 -42 9 -16 2 -55 6 -85 9 -59 7 -775 16 -781 10z"/>
</g>
</svg>
